<svg class="svg-icon" style="width: 1em;height: 1em;vertical-align: middle;fill: currentColor;overflow: hidden;" viewBox="0 0 1024 1024" version="1.1" xmlns="http://www.w3.org/2000/svg"><path d="M960 512c0 247.4-200.6 448-448 448-19.4 0-38.5-1.2-57.3-3.6-27.1-3.5-53.4-9.3-78.7-17.4C195 881.4 64 712 64 512 64 264.6 264.6 64 512 64c98.6 0 189.8 31.8 263.8 85.8 106 77.3 176.8 200.1 183.7 339.7 0.3 7.5 0.5 15 0.5 22.5z" fill="#EF4081" /><path d="M960 512c0 247.4-200.6 448-448 448-19.4 0-38.5-1.2-57.3-3.6-27.1-3.5-53.4-9.3-78.7-17.4L243.2 806.2l532.5-656.4c106 77.3 176.8 200.1 183.7 339.7 0.4 7.5 0.6 15 0.6 22.5z" fill="#BC0C5C" /><path d="M804.8 191.9v557.2c0 44.1-35.9 80-80 80H299.2c-44.1 0-80-35.9-80-80V191.9c0-44.1 35.9-80 80-80h425.6c44.1 0 80 35.9 80 80z" fill="#885AEF" /><path d="M804.8 191.9v557.2c0 44.1-35.9 80-80 80H512.1V111.9h212.7c44.1 0 80 35.9 80 80z" fill="#3F2867" /><path d="M750.4 703.8c0 31.4-25.5 56.8-56.8 56.8h-380c-22.1 0-40-17.9-40-40V179.3c0-22.1 17.9-40 40-40h396.8c22.1 0 40 17.9 40 40v524.5z" fill="#B9FCF3" /><path d="M750.4 720.7c0 22.1-17.9 40-40 40H512.1V139.3h198.3c22.1 0 40 17.9 40 40v541.4z" fill="#96F5E6" /><path d="M443.6 405.8h-93.3c-10.4 0-18.9-8.5-18.9-18.9v-93.3c0-10.4 8.5-18.9 18.9-18.9h93.3c10.4 0 18.9 8.5 18.9 18.9v93.3c0.1 10.4-8.5 18.9-18.9 18.9z m-74.3-37.9h55.4v-55.4h-55.4v55.4z" fill="#8363D4" /><path d="M622.1 324.5h-66.9c-10.4 0-18.9-8.5-18.9-18.9s8.5-18.9 18.9-18.9h66.9c10.4 0 18.9 8.5 18.9 18.9s-8.4 18.9-18.9 18.9zM697.8 394.7H555.2c-10.4 0-18.9-8.5-18.9-18.9s8.5-18.9 18.9-18.9h142.6c10.4 0 18.9 8.5 18.9 18.9s-8.4 18.9-18.9 18.9z" fill="#3F2867" /><path d="M380.8 381.3c-5 0-9.9-2-13.4-5.6l-44-44c-7.4-7.4-7.4-19.4 0-26.8 7.4-7.4 19.4-7.4 26.8 0l30.6 30.6 73.5-73.5c7.4-7.4 19.4-7.4 26.8 0 7.4 7.4 7.4 19.4 0 26.8l-86.9 86.9c-3.5 3.6-8.4 5.6-13.4 5.6z" fill="#F7C832" /><path d="M443.6 642.4h-93.3c-10.4 0-18.9-8.5-18.9-18.9v-93.3c0-10.4 8.5-18.9 18.9-18.9h93.3c10.4 0 18.9 8.5 18.9 18.9v93.3c0.1 10.4-8.5 18.9-18.9 18.9z m-74.3-37.9h55.4v-55.4h-55.4v55.4z" fill="#8363D4" /><path d="M622.1 561.1h-66.9c-10.4 0-18.9-8.5-18.9-18.9 0-10.4 8.5-18.9 18.9-18.9h66.9c10.4 0 18.9 8.5 18.9 18.9 0 10.4-8.4 18.9-18.9 18.9zM697.8 631.3H555.2c-10.4 0-18.9-8.5-18.9-18.9 0-10.4 8.5-18.9 18.9-18.9h142.6c10.4 0 18.9 8.5 18.9 18.9 0.1 10.4-8.4 18.9-18.9 18.9z" fill="#3F2867" /><path d="M380.8 618.1c-5 0-9.9-2-13.4-5.6l-44-44c-7.4-7.4-7.4-19.4 0-26.8 7.4-7.4 19.4-7.4 26.8 0l30.6 30.6 73.5-73.5c7.4-7.4 19.4-7.4 26.8 0 7.4 7.4 7.4 19.4 0 26.8l-86.9 86.9c-3.5 3.6-8.4 5.6-13.4 5.6z" fill="#EF4081" /><path d="M664.9 86.9v50c0 6.7-5.4 12.1-12.1 12.1H371.2c-6.7 0-12.1-5.4-12.1-12.1v-50c0-6.7 5.4-12.1 12.1-12.1h281.5c6.8-0.1 12.2 5.3 12.2 12.1z" fill="#F7C832" /><path d="M664.9 86.9v50c0 6.7-5.4 12.1-12.1 12.1H512.1V74.7h140.7c6.7 0 12.1 5.4 12.1 12.2z" fill="#F3A333" /></svg>